<svg xmlns="http://www.w3.org/2000/svg" width="16" height="16" viewBox="0 0 16 16">
    <path fill="#666" fill-rule="evenodd" d="M5.517 4.247v2.536H8.37c.51 0 .923-.095 1.241-.285.318-.19.477-.526.477-1.01 0-.536-.21-.89-.63-1.061-.363-.12-.825-.18-1.388-.18H5.517zm0 4.44v3.066H8.37c.51 0 .906-.068 1.19-.203.515-.25.772-.728.772-1.436 0-.598-.25-1.009-.748-1.232-.279-.125-.67-.19-1.175-.195H5.517zm6.352-5.212c.357.489.536 1.074.536 1.755 0 .703-.179 1.267-.536 1.693-.2.24-.494.458-.883.656.594.213 1.042.551 1.344 1.014.302.463.453 1.025.453 1.685 0 .682-.173 1.293-.52 1.834a3.19 3.19 0 0 1-.827.905c-.373.28-.813.473-1.32.577a8.217 8.217 0 0 1-1.651.156H3.2V2.25h5.643c1.424.02 2.432.43 3.026 1.225z"/>
</svg>
