
<svg xmlns="http://www.w3.org/2000/svg" width="16" height="16" viewBox="0 0 16 16">
    <g fill="#666" fill-rule="evenodd">
        <path d="M.5 1.583v-.467a3.04 3.04 0 0 0 .455-.043.641.641 0 0 0 .337-.183.602.602 0 0 0 .134-.25.574.574 0 0 0 .027-.14h.57v3.49h-.702V1.582H.5zM.661 8.856c.098-.233.33-.479.693-.739.316-.226.52-.388.614-.486a.718.718 0 0 0 .214-.5c0-.148-.04-.27-.123-.369a.432.432 0 0 0-.351-.146c-.209 0-.35.077-.426.233-.043.09-.069.233-.077.428H.54c.01-.296.064-.536.16-.72.184-.347.508-.521.975-.521.37 0 .663.102.881.307.218.204.327.475.327.812a1.1 1.1 0 0 1-.23.688 2.301 2.301 0 0 1-.499.445l-.274.195c-.172.122-.29.21-.353.265a.776.776 0 0 0-.16.19H2.89v.604H.5c.006-.25.06-.48.161-.686zM1.174 14.024c0 .14.022.255.067.346.084.168.235.253.455.253a.504.504 0 0 0 .352-.139c.1-.092.15-.225.15-.398 0-.23-.092-.383-.278-.46-.106-.043-.273-.065-.5-.065v-.49c.222-.004.378-.025.466-.065.152-.068.229-.204.229-.41a.457.457 0 0 0-.117-.324.427.427 0 0 0-.329-.125c-.162 0-.28.05-.357.154a.653.653 0 0 0-.11.411h-.64c.007-.173.037-.338.09-.493a1.11 1.11 0 0 1 .264-.378.922.922 0 0 1 .32-.188c.124-.043.275-.065.455-.065.334 0 .603.087.807.259a.862.862 0 0 1 .307.694.767.767 0 0 1-.183.52.624.624 0 0 1-.24.18c.062 0 .152.054.27.162.174.162.262.383.262.664 0 .295-.103.554-.307.778-.205.224-.508.336-.909.336-.494 0-.837-.161-1.03-.484-.1-.171-.157-.396-.168-.673h.674z"/>
        <path fill-rule="nonzero" d="M4.4 1.333h11v2.231h-11zM4.4 7.167h11v2.231h-11zM4.4 13h11v2.231h-11z"/>
    </g>
</svg>
